<svg width="24" height="25" viewBox="0 0 24 25" fill="none" xmlns="http://www.w3.org/2000/svg">
<path d="M12 2.5C12.3745 2.5 12.7182 2.709 12.8896 3.04199L21.3896 19.5596C21.512 19.7976 21.5337 20.0749 21.4502 20.3291C21.3665 20.5836 21.1834 20.7942 20.9433 20.9131C18.1633 22.2898 15.1023 23.0033 12 22.999V23C8.80386 23 5.73891 22.2494 3.0537 20.9121C2.81444 20.7928 2.63306 20.5822 2.54979 20.3281C2.46662 20.0741 2.48812 19.7973 2.61034 19.5596L11.1103 3.04199L11.1826 2.92383C11.3682 2.66042 11.6721 2.5 12 2.5ZM4.8662 19.5469C7.04879 20.4808 9.47669 21 12 21H12.001C14.4554 21.0036 16.8811 20.5061 19.1318 19.5449L18.2412 17.8154C16.3247 18.5977 14.2715 19.0016 12.1953 18.999L12.1963 19L12.1943 18.999L12.1933 19V18.999C9.99938 19.0017 7.83224 18.5513 5.82616 17.6807L4.8662 19.5469ZM6.74413 15.8965C8.46529 16.6245 10.3177 17.0026 12.1933 17H12.1963C13.954 17.0023 15.6924 16.67 17.3223 16.0283L12 5.68652L6.74413 15.8965ZM11 13.4902C11.5523 13.4902 12 13.9379 12 14.4902V14.5C11.9999 15.0522 11.5522 15.5 11 15.5C10.4478 15.5 10.0001 15.0522 9.99998 14.5V14.4902C9.99998 13.938 10.4477 13.4902 11 13.4902ZM13 10.5C13.5523 10.5 14 10.9477 14 11.5V11.5098C14 12.0621 13.5523 12.5098 13 12.5098C12.4477 12.5098 12 12.062 12 11.5098V11.5C12 10.9477 12.4477 10.5 13 10.5Z" fill="#FBFBFB"/>
</svg>
