<svg width="24" height="25" viewBox="0 0 24 25" fill="none" xmlns="http://www.w3.org/2000/svg">
<path d="M14.6997 10.5C15.2799 10.5 15.848 10.6683 16.3345 10.9844C16.8211 11.3006 17.2052 11.7518 17.4409 12.2822L20.9136 20.0938C21.1379 20.5984 20.9104 21.1898 20.4058 21.4141C19.9012 21.6381 19.3097 21.4108 19.0854 20.9062L17.1323 16.5117C16.9275 16.5424 16.7856 16.6261 16.7241 16.6904L16.7212 16.6924C16.1923 17.2435 15.4183 17.5027 14.6792 17.499L14.6802 17.5C14.6757 17.5 14.671 17.499 14.6665 17.499C14.6623 17.499 14.658 17.5001 14.6538 17.5V17.499C13.9145 17.5025 13.1419 17.243 12.6128 16.6934L12.6089 16.6904C12.5305 16.6083 12.3211 16.4948 12.0171 16.5C12.0058 16.5002 11.9942 16.5002 11.9829 16.5C11.679 16.4948 11.4696 16.6083 11.3911 16.6904L11.3872 16.6934C10.8579 17.2432 10.0848 17.5027 9.34521 17.499L9.34619 17.5C9.34167 17.5 9.33704 17.499 9.33252 17.499C9.32832 17.499 9.32403 17.5001 9.31982 17.5V17.499C8.5809 17.5025 7.80655 17.2434 7.27783 16.6924L7.27588 16.6904C7.21427 16.6259 7.07166 16.5421 6.86572 16.5117L4.91357 20.9062C4.68921 21.4108 4.09789 21.6383 3.59326 21.4141C3.08892 21.1897 2.86134 20.5983 3.08545 20.0938L5.26611 15.1865C5.27555 15.1634 5.28528 15.1405 5.29639 15.1182L6.55811 12.2822C6.79371 11.7519 7.17801 11.3007 7.66455 10.9844C8.151 10.6683 8.7192 10.5001 9.29932 10.5H14.6997ZM9.29932 12.5C9.10611 12.5001 8.91643 12.5559 8.75439 12.6611C8.59237 12.7665 8.46376 12.9171 8.38525 13.0938L7.68701 14.6631C8.074 14.7952 8.43406 15.0074 8.72119 15.3076L8.80518 15.373C8.91251 15.4397 9.08954 15.503 9.31982 15.5C9.32858 15.4999 9.33743 15.4999 9.34619 15.5C9.65259 15.5041 9.86605 15.3903 9.94678 15.3066C10.4743 14.7558 11.2451 14.4975 11.9829 14.502V14.5C11.9884 14.4999 11.994 14.501 11.9995 14.501C12.0053 14.501 12.0113 14.4999 12.0171 14.5L12.0161 14.502C12.7543 14.4973 13.5255 14.7556 14.0532 15.3066L14.1382 15.373C14.2465 15.4402 14.424 15.503 14.6538 15.5C14.6626 15.4999 14.6714 15.4999 14.6802 15.5C14.987 15.5041 15.1987 15.3899 15.2778 15.3076V15.3086C15.5647 15.0084 15.9243 14.7954 16.311 14.6631L15.6138 13.0938C15.5352 12.9171 15.4068 12.7665 15.2446 12.6611C15.0825 12.5559 14.8929 12.5 14.6997 12.5H9.29932ZM7.29639 4.51465C7.98291 4.5829 8.62844 4.88685 9.12061 5.37891C9.68321 5.94152 9.99951 6.70435 9.99951 7.5V8.5C9.99951 9.05228 9.5518 9.5 8.99951 9.5C8.44745 9.49974 7.99951 9.05213 7.99951 8.5V7.5C7.99951 7.23478 7.89408 6.98051 7.70654 6.79297C7.54243 6.62897 7.32703 6.52756 7.09814 6.50488L6.99951 6.5C6.73447 6.50013 6.4799 6.60554 6.29248 6.79297C6.10509 6.98048 5.99951 7.2349 5.99951 7.5C5.99951 8.05228 5.5518 8.5 4.99951 8.5C4.44745 8.49974 3.99951 8.05213 3.99951 7.5C3.99951 6.70446 4.31596 5.94149 4.87842 5.37891C5.44091 4.81641 6.20403 4.50013 6.99951 4.5L7.29639 4.51465ZM11.9995 3.5C12.5518 3.5 12.9995 3.94772 12.9995 4.5V8.5C12.9995 9.05228 12.5518 9.5 11.9995 9.5C11.4474 9.49974 10.9995 9.05213 10.9995 8.5V4.5C10.9995 3.94787 11.4474 3.50026 11.9995 3.5ZM17.2964 4.51465C17.9829 4.5829 18.6284 4.88685 19.1206 5.37891C19.6832 5.94152 19.9995 6.70435 19.9995 7.5C19.9995 8.05228 19.5518 8.5 18.9995 8.5C18.4474 8.49974 17.9995 8.05213 17.9995 7.5C17.9995 7.23478 17.8941 6.98051 17.7065 6.79297C17.5424 6.62897 17.327 6.52756 17.0981 6.50488L16.9995 6.5C16.7345 6.50013 16.4799 6.60554 16.2925 6.79297C16.1051 6.98048 15.9995 7.2349 15.9995 7.5V8.5C15.9995 9.05228 15.5518 9.5 14.9995 9.5C14.4474 9.49974 13.9995 9.05213 13.9995 8.5V7.5C13.9995 6.70446 14.316 5.94149 14.8784 5.37891C15.4409 4.81641 16.204 4.50013 16.9995 4.5L17.2964 4.51465Z" fill="#FBFBFB"/>
</svg>
