<svg width="24" height="25" viewBox="0 0 24 25" fill="none" xmlns="http://www.w3.org/2000/svg">
<path d="M9 13.5C9.53043 13.5 10.039 13.7109 10.4141 14.0859C10.7891 14.461 11 14.9696 11 15.5V19.5C11 20.0304 10.7891 20.539 10.4141 20.9141C10.039 21.2891 9.53043 21.5 9 21.5H5C4.46957 21.5 3.96101 21.2891 3.58594 20.9141C3.21086 20.539 3 20.0304 3 19.5V15.5C3 14.9696 3.21087 14.461 3.58594 14.0859C3.96101 13.7109 4.46957 13.5 5 13.5H9ZM19 13.5C19.5304 13.5 20.039 13.7109 20.4141 14.0859C20.7891 14.461 21 14.9696 21 15.5V19.5C21 20.0304 20.7891 20.539 20.4141 20.9141C20.039 21.2891 19.5304 21.5 19 21.5H15C14.4696 21.5 13.961 21.2891 13.5859 20.9141C13.2109 20.539 13 20.0304 13 19.5V15.5C13 14.9696 13.2109 14.461 13.5859 14.0859C13.961 13.7109 14.4696 13.5 15 13.5H19ZM5 19.5H9V15.5H5V19.5ZM15 19.5H19V15.5H15V19.5ZM9 3.5C9.53043 3.5 10.039 3.71087 10.4141 4.08594C10.7891 4.46101 11 4.96957 11 5.5V9.5C11 10.0304 10.7891 10.539 10.4141 10.9141C10.039 11.2891 9.53043 11.5 9 11.5H5C4.46957 11.5 3.96101 11.2891 3.58594 10.9141C3.21087 10.539 3 10.0304 3 9.5V5.5C3 4.96957 3.21087 4.46101 3.58594 4.08594C3.96101 3.71087 4.46957 3.5 5 3.5H9ZM19 3.5C19.5304 3.5 20.039 3.71086 20.4141 4.08594C20.7891 4.46101 21 4.96957 21 5.5V9.5C21 10.0304 20.7891 10.539 20.4141 10.9141C20.039 11.2891 19.5304 11.5 19 11.5H15C14.4696 11.5 13.961 11.2891 13.5859 10.9141C13.2109 10.539 13 10.0304 13 9.5V5.5C13 4.96957 13.2109 4.46101 13.5859 4.08594C13.961 3.71087 14.4696 3.5 15 3.5H19ZM5 9.5H9V5.5H5V9.5ZM15 9.5H19V5.5H15V9.5Z" fill="#202020"/>
</svg>
