<svg width="24" height="25" viewBox="0 0 24 25" fill="none" xmlns="http://www.w3.org/2000/svg">
<path d="M20 5.5C20 5.23478 19.8946 4.98051 19.707 4.79297C19.5195 4.60543 19.2652 4.5 19 4.5H5C4.73478 4.5 4.48051 4.60543 4.29297 4.79297C4.10543 4.98051 4 5.23478 4 5.5V19.5C4 19.7652 4.10543 20.0195 4.29297 20.207C4.48051 20.3946 4.73478 20.5 5 20.5H19C19.2652 20.5 19.5195 20.3946 19.707 20.207C19.8946 20.0195 20 19.7652 20 19.5V5.5ZM22 19.5C22 20.2957 21.6837 21.0585 21.1211 21.6211C20.5585 22.1837 19.7957 22.5 19 22.5H5C4.20435 22.5 3.44152 22.1837 2.87891 21.6211C2.3163 21.0585 2 20.2956 2 19.5V5.5C2 4.70435 2.3163 3.94152 2.87891 3.37891C3.44152 2.8163 4.20435 2.5 5 2.5H19C19.7956 2.5 20.5585 2.8163 21.1211 3.37891C21.6837 3.94152 22 4.70435 22 5.5V19.5Z" fill="#202020"/>
</svg>
