<svg width="24" height="24" viewBox="0 0 24 24" fill="none" xmlns="http://www.w3.org/2000/svg">
<path d="M3.97949 18.0007C4.53105 17.9892 5.07685 18.1124 5.57031 18.3591C6.06387 18.6059 6.49069 18.9685 6.8125 19.4167C6.94496 19.6012 7.12012 19.7517 7.32324 19.8533C7.52645 19.9549 7.75234 20.0055 7.97949 20.0007C7.99311 20.0005 8.00689 20.0005 8.02051 20.0007C8.24762 20.0055 8.47356 19.9548 8.67676 19.8533C8.87982 19.7517 9.05505 19.6012 9.1875 19.4167C9.50925 18.9686 9.93624 18.6059 10.4297 18.3591C10.9109 18.1186 11.442 17.997 11.9795 18.0017V18.0007C11.9863 18.0006 11.9932 18.0018 12 18.0017C12.0068 18.0018 12.0137 18.0006 12.0205 18.0007L12.0195 18.0017C12.5575 17.9968 13.0888 18.1184 13.5703 18.3591C14.0639 18.6059 14.4907 18.9685 14.8125 19.4167C14.945 19.6012 15.1201 19.7517 15.3232 19.8533C15.5265 19.9549 15.7523 20.0055 15.9795 20.0007C15.9931 20.0005 16.0069 20.0005 16.0205 20.0007C16.2476 20.0055 16.4736 19.9548 16.6768 19.8533C16.8798 19.7517 17.0551 19.6012 17.1875 19.4167C17.5092 18.9686 17.9362 18.6059 18.4297 18.3591C18.9231 18.1125 19.469 17.9893 20.0205 18.0007H20.0283C20.5206 18.0148 21.0043 18.136 21.4453 18.3552C21.9396 18.6011 22.1411 19.2007 21.8955 19.6951C21.6495 20.1894 21.0491 20.3911 20.5547 20.1453C20.3738 20.0554 20.1755 20.0058 19.9736 19.9998C19.7483 19.9959 19.5248 20.0464 19.3232 20.1472C19.1202 20.2488 18.9449 20.3993 18.8125 20.5837C18.4907 21.0319 18.0638 21.3956 17.5703 21.6423C17.089 21.8828 16.5572 22.0036 16.0195 21.9988L16.0205 21.9998C16.0137 21.9999 16.0068 21.9987 16 21.9988C15.9932 21.9987 15.9863 21.9999 15.9795 21.9998V21.9988C15.4421 22.0035 14.9108 21.8828 14.4297 21.6423C13.9362 21.3956 13.5093 21.032 13.1875 20.5837C13.055 20.3992 12.8799 20.2488 12.6768 20.1472C12.4735 20.0456 12.2477 19.995 12.0205 19.9998C12.0069 20 11.9931 20 11.9795 19.9998C11.7523 19.995 11.5265 20.0456 11.3232 20.1472C11.1202 20.2488 10.9449 20.3993 10.8125 20.5837C10.4907 21.0319 10.0638 21.3956 9.57031 21.6423C9.08896 21.8828 8.55723 22.0036 8.01953 21.9988L8.02051 21.9998C8.01373 21.9999 8.00677 21.9987 8 21.9988C7.99323 21.9987 7.98627 21.9999 7.97949 21.9998V21.9988C7.44209 22.0035 6.91077 21.8828 6.42969 21.6423C5.93616 21.3956 5.5093 21.032 5.1875 20.5837C5.05502 20.3992 4.87994 20.2488 4.67676 20.1472C4.47482 20.0462 4.25108 19.9957 4.02539 19.9998C3.82392 20.006 3.62584 20.0556 3.44531 20.1453C2.9509 20.3909 2.35039 20.1894 2.10449 19.6951C1.85898 19.2008 2.06064 18.6012 2.55469 18.3552C2.99563 18.136 3.47944 18.0148 3.97168 18.0007H3.97949ZM13.1885 2.23804C14.9815 1.75776 16.8924 2.00919 18.5 2.93726C20.1076 3.86549 21.2802 5.39517 21.7607 7.18823C22.2411 8.98131 21.9896 10.8921 21.0615 12.4998C20.9289 12.7293 20.7102 12.8969 20.4541 12.9656C20.198 13.0341 19.9249 12.9985 19.6953 12.866L15.3652 10.366L13.4736 13.6433C15.2754 13.9054 16.958 14.7402 18.2607 16.0427C18.651 16.4331 18.6508 17.0663 18.2607 17.4568C17.8703 17.8473 17.2372 17.8472 16.8467 17.4568C15.6277 16.238 13.9737 15.5535 12.25 15.5535C10.5264 15.5535 8.87318 16.2381 7.6543 17.4568C7.26375 17.8473 6.63074 17.8473 6.24023 17.4568C5.84981 17.0662 5.84971 16.4332 6.24023 16.0427C7.57853 14.7046 9.31745 13.8617 11.1748 13.6248L13.6328 9.36597L9.30371 6.86597C9.07415 6.73338 8.90654 6.5146 8.83789 6.25854C8.76938 6.00253 8.80504 5.7293 8.9375 5.49976C9.8658 3.89217 11.3954 2.71848 13.1885 2.23804ZM19.2812 6.42163C19.0618 7.38579 18.6479 8.49003 18.0732 9.6189L19.7412 10.5828C20.0493 9.6599 20.0846 8.65964 19.8291 7.70581C19.7069 7.24993 19.5204 6.81889 19.2812 6.42163ZM17.4482 4.75659C17.2377 4.84321 16.9344 5.03455 16.5596 5.36694C15.9678 5.89174 15.301 6.6771 14.6602 7.64917L15.4951 8.13062C15.4968 8.13155 15.4984 8.1326 15.5 8.13354C15.5012 8.13422 15.5027 8.13481 15.5039 8.1355L16.3389 8.61792C16.8604 7.57715 17.2076 6.60755 17.3662 5.83276C17.4669 5.34066 17.4788 4.98199 17.4482 4.75659ZM15.0918 4.00171C14.6283 3.9931 14.1618 4.04762 13.7061 4.16968C12.752 4.4253 11.9021 4.95592 11.2568 5.68433L12.9258 6.64819C13.6166 5.5856 14.3661 4.67403 15.0918 4.00171Z" fill="#202020"/>
</svg>
