<svg width="24" height="25" viewBox="0 0 24 25" fill="none" xmlns="http://www.w3.org/2000/svg">
<path d="M5 14.5C6.06087 14.5 7.07798 14.9217 7.82812 15.6719C8.57827 16.422 9 17.4391 9 18.5C9 19.5609 8.57827 20.578 7.82812 21.3281C7.12484 22.0314 6.18693 22.4461 5.19824 22.4951L5 22.5C3.93913 22.5 2.92202 22.0783 2.17188 21.3281C1.46859 20.6248 1.0539 19.6869 1.00488 18.6982L1 18.5C1 17.4391 1.42173 16.422 2.17188 15.6719C2.92202 14.9217 3.93913 14.5 5 14.5ZM19 14.5C20.0609 14.5 21.078 14.9217 21.8281 15.6719C22.5783 16.422 23 17.4391 23 18.5L22.9951 18.6982C22.9461 19.6869 22.5314 20.6248 21.8281 21.3281C21.1248 22.0314 20.1869 22.4461 19.1982 22.4951L19 22.5C17.9391 22.5 16.922 22.0783 16.1719 21.3281C15.4686 20.6248 15.0539 19.6869 15.0049 18.6982L15 18.5C15 17.4391 15.4217 16.422 16.1719 15.6719C16.922 14.9217 17.9391 14.5 19 14.5ZM5 16.5C4.46957 16.5 3.96101 16.7109 3.58594 17.0859C3.21086 17.461 3 17.9696 3 18.5L3.00977 18.6973C3.05515 19.1553 3.25765 19.5858 3.58594 19.9141C3.96101 20.2891 4.46957 20.5 5 20.5L5.19727 20.4902C5.65526 20.4449 6.08578 20.2423 6.41406 19.9141C6.78914 19.539 7 19.0304 7 18.5C7 17.9696 6.78914 17.461 6.41406 17.0859C6.03899 16.7109 5.53043 16.5 5 16.5ZM13.46 7.6582C13.6644 7.52705 13.911 7.47412 14.1533 7.51172C14.4303 7.55473 14.6766 7.71212 14.832 7.94531L16.5352 10.5H19C19.5523 10.5 20 10.9477 20 11.5C20 12.0523 19.5523 12.5 19 12.5H16C15.6657 12.5 15.3534 12.3329 15.168 12.0547L13.7725 9.96191L10.4971 12.583L12.707 14.793C12.8945 14.9805 13 15.2348 13 15.5V19.5C13 20.0523 12.5523 20.5 12 20.5C11.4477 20.5 11 20.0523 11 19.5V15.9141L8.29297 13.207C8.09184 13.0059 7.98623 12.7283 8.00195 12.4443C8.01778 12.1605 8.15299 11.8964 8.375 11.7188L13.375 7.71875L13.46 7.6582ZM19 16.5C18.4696 16.5 17.961 16.7109 17.5859 17.0859C17.2109 17.461 17 17.9696 17 18.5L17.0098 18.6973C17.0551 19.1553 17.2577 19.5858 17.5859 19.9141C17.961 20.2891 18.4696 20.5 19 20.5L19.1973 20.4902C19.6553 20.4449 20.0858 20.2423 20.4141 19.9141C20.7891 19.539 21 19.0304 21 18.5L20.9902 18.3027C20.9449 17.8447 20.7423 17.4142 20.4141 17.0859C20.039 16.7109 19.5304 16.5 19 16.5ZM17.1973 3.50977C17.6553 3.55515 18.0858 3.75765 18.4141 4.08594C18.7891 4.46101 19 4.96957 19 5.5C19 6.03043 18.7891 6.53899 18.4141 6.91406C18.039 7.28914 17.5304 7.5 17 7.5C16.4696 7.5 15.961 7.28914 15.5859 6.91406C15.2109 6.53899 15 6.03043 15 5.5C15 4.96957 15.2109 4.46101 15.5859 4.08594C15.961 3.71086 16.4696 3.5 17 3.5L17.1973 3.50977Z" fill="#202020"/>
</svg>
