<svg width="24" height="25" viewBox="0 0 24 25" fill="none" xmlns="http://www.w3.org/2000/svg">
<path d="M17 2.5C17.5304 2.5 18.039 2.71086 18.4141 3.08594C18.7891 3.46101 19 3.96957 19 4.5V8.5C19 10.0739 18.663 11.2164 18.0684 12.5537L18.0693 12.5547L17.7598 13.2549L17.7588 13.2559C17.2616 14.3757 17 15.6153 17 16.875V20.5C17 21.0304 16.7891 21.539 16.4141 21.9141C16.039 22.2891 15.5304 22.5 15 22.5H9C8.46957 22.5 7.96101 22.2891 7.58594 21.9141C7.21086 21.539 7 21.0304 7 20.5V16.873C7.002 15.6272 6.74298 14.3948 6.24023 13.2549L5.93066 12.5557L5.7207 12.0625C5.25829 10.9261 5 9.8784 5 8.5V4.5C5 3.96957 5.21087 3.46101 5.58594 3.08594C5.96101 2.71086 6.46957 2.5 7 2.5H17ZM7.06641 9.5C7.16907 10.2523 7.39451 10.9237 7.75879 11.7441L7.75977 11.7451L8.06934 12.4453L8.07031 12.4463C8.68583 13.8414 9.00228 15.3501 9 16.875V20.5H15V16.875C15 15.3409 15.318 13.8244 15.9307 12.4443L16.2402 11.7451L16.2412 11.7432C16.6058 10.9234 16.831 10.2523 16.9336 9.5H7.06641ZM7 7.5H17V4.5H7V7.5Z" fill="#FBFBFB"/>
</svg>
