<svg width="24" height="25" viewBox="0 0 24 25" fill="none" xmlns="http://www.w3.org/2000/svg">
<path d="M13 2.5C13.7956 2.5 14.5585 2.8163 15.1211 3.37891C15.6837 3.94152 16 4.70435 16 5.5C16.7956 5.5 17.5585 5.8163 18.1211 6.37891C18.6837 6.94152 19 7.70435 19 8.5V18.5C19 19.2957 18.6837 20.0585 18.1211 20.6211C17.5585 21.1837 16.7957 21.5 16 21.5C16 22.0523 15.5523 22.5 15 22.5C14.4477 22.5 14 22.0523 14 21.5H10C10 22.0523 9.55228 22.5 9 22.5C8.44772 22.5 8 22.0523 8 21.5C7.20435 21.5 6.44152 21.1837 5.87891 20.6211C5.3163 20.0585 5 19.2956 5 18.5V8.5C5 7.70435 5.3163 6.94152 5.87891 6.37891C6.44152 5.8163 7.20435 5.5 8 5.5C8 4.70435 8.3163 3.94152 8.87891 3.37891C9.44152 2.8163 10.2044 2.5 11 2.5H13ZM7 18.5L7.00488 18.5986C7.02757 18.8276 7.12883 19.0429 7.29297 19.207C7.48051 19.3946 7.73478 19.5 8 19.5H16C16.2652 19.5 16.5195 19.3946 16.707 19.207C16.8946 19.0195 17 18.7652 17 18.5V17.5H7V18.5ZM7 15.5H17V11.5H7V15.5ZM8 7.5C7.73478 7.5 7.48051 7.60543 7.29297 7.79297C7.10543 7.98051 7 8.23478 7 8.5V9.5H17V8.5C17 8.23478 16.8946 7.98051 16.707 7.79297C16.5429 7.62883 16.3276 7.52757 16.0986 7.50488L16 7.5H8ZM11 4.5C10.7348 4.5 10.4805 4.60543 10.293 4.79297C10.1054 4.98051 10 5.23478 10 5.5H14C14 5.23478 13.8946 4.98051 13.707 4.79297C13.5429 4.62883 13.3276 4.52757 13.0986 4.50488L13 4.5H11Z" fill="#202020"/>
</svg>
